<svg width="43" height="43" viewBox="0 0 43 43" fill="none" xmlns="http://www.w3.org/2000/svg">
<path d="M21.9587 38.9315C12.303 38.9315 4.47595 31.1045 4.47595 21.4487C4.47595 11.793 12.303 3.96594 21.9587 3.96594C31.6145 3.96594 39.4415 11.793 39.4415 21.4487C39.4415 31.1045 31.6145 38.9315 21.9587 38.9315ZM21.9587 35.435C25.6681 35.435 29.2256 33.9614 31.8485 31.3385C34.4714 28.7156 35.945 25.1581 35.945 21.4487C35.945 17.7394 34.4714 14.1819 31.8485 11.559C29.2256 8.93605 25.6681 7.4625 21.9587 7.4625C18.2494 7.4625 14.6919 8.93605 12.069 11.559C9.44606 14.1819 7.97251 17.7394 7.97251 21.4487C7.97251 25.1581 9.44606 28.7156 12.069 31.3385C14.6919 33.9614 18.2494 35.435 21.9587 35.435ZM15.8398 24.9453H25.4553C25.6871 24.9453 25.9095 24.8532 26.0734 24.6893C26.2373 24.5253 26.3294 24.303 26.3294 24.0711C26.3294 23.8393 26.2373 23.617 26.0734 23.453C25.9095 23.2891 25.6871 23.197 25.4553 23.197H18.4622C17.303 23.197 16.1913 22.7365 15.3716 21.9169C14.552 21.0972 14.0915 19.9855 14.0915 18.8263C14.0915 17.6671 14.552 16.5554 15.3716 15.7358C16.1913 14.9161 17.303 14.4556 18.4622 14.4556H20.2105V10.9591H23.707V14.4556H28.0777V17.9522H18.4622C18.2303 17.9522 18.008 18.0443 17.8441 18.2082C17.6801 18.3721 17.588 18.5945 17.588 18.8263C17.588 19.0581 17.6801 19.2805 17.8441 19.4444C18.008 19.6084 18.2303 19.7005 18.4622 19.7005H25.4553C26.6145 19.7005 27.7262 20.1609 28.5458 20.9806C29.3655 21.8003 29.826 22.912 29.826 24.0711C29.826 25.2303 29.3655 26.342 28.5458 27.1617C27.7262 27.9814 26.6145 28.4418 25.4553 28.4418H23.707V31.9384H20.2105V28.4418H15.8398V24.9453Z" fill="#3F3F44"/>
</svg>
