<svg width="36" height="36" viewBox="0 0 36 36" fill="none" xmlns="http://www.w3.org/2000/svg">
<g clip-path="url(#clip0_1_984)">
<g clip-path="url(#clip1_1_984)">
<path d="M18.086 20.8271V23.6805C15.8158 23.6805 13.6385 24.5823 12.0332 26.1876C10.4279 27.7929 9.52605 29.9702 9.52605 32.2404H6.67271C6.67271 29.2134 7.87519 26.3104 10.0156 24.17C12.156 22.0296 15.059 20.8271 18.086 20.8271ZM18.086 19.4005C13.3566 19.4005 9.52605 15.5699 9.52605 10.8405C9.52605 6.11106 13.3566 2.28046 18.086 2.28046C22.8154 2.28046 26.646 6.11106 26.646 10.8405C26.646 15.5699 22.8154 19.4005 18.086 19.4005ZM18.086 16.5471C21.239 16.5471 23.7927 13.9934 23.7927 10.8405C23.7927 7.68752 21.239 5.13379 18.086 5.13379C14.9331 5.13379 12.3794 7.68752 12.3794 10.8405C12.3794 13.9934 14.9331 16.5471 18.086 16.5471ZM26.646 31.5271L22.4531 33.7313L23.2534 29.0633L19.8622 25.7563L24.5503 25.0743L26.646 20.8271L28.7432 25.0743L33.4298 25.7563L30.0387 29.0633L30.8376 33.7313L26.646 31.5271Z" fill="#101928"/>
</g>
</g>
<defs>
<clipPath id="clip0_1_984">
<rect width="35.0281" height="35.0281" fill="white" transform="translate(0.834801 0.820984)"/>
</clipPath>
<clipPath id="clip1_1_984">
<rect width="32.1091" height="32.1091" fill="white" transform="translate(0.834869 2.28033)"/>
</clipPath>
</defs>
</svg>
