<svg width="36" height="36" viewBox="0 0 36 36" fill="none" xmlns="http://www.w3.org/2000/svg">
<g clip-path="url(#clip0_1_974)">
<path d="M22.1921 22.6417L21.9603 22.5893L21.7633 22.7212C19.2422 24.4117 15.9959 24.4117 13.4749 22.7212L13.2779 22.5893L13.0467 22.6417C6.95078 24.0187 2.85571 27.9515 2.85571 32.4285V32.9804H32.3823V32.4285C32.3823 27.9515 28.2872 24.0187 22.1921 22.6417ZM3.98386 31.8766C4.30999 28.2092 7.86702 25.0121 13.0637 23.7709C15.8491 25.5336 19.3873 25.5342 22.1744 23.7709C27.3705 25.0121 30.9275 28.2093 31.2542 31.8766H3.98386Z" fill="#101928"/>
<path d="M12.86 21.4313C14.3026 22.3983 15.9484 22.9098 17.6189 22.9098C19.2895 22.9098 20.9347 22.3983 22.3774 21.4313C22.4988 21.3502 22.6153 21.2619 22.7323 21.1747H26.7849V13.9569C26.8362 13.5154 26.8638 13.0661 26.8638 12.6202C26.8638 6.94683 22.7168 2.33075 17.6195 2.33075C12.993 2.33075 9.13902 6.06712 8.47566 11.1026H8.37466V12.6203V21.1747H12.5056C12.6226 21.262 12.7391 21.3502 12.86 21.4313ZM25.6805 20.0709H23.9812C24.0723 19.9744 24.1567 19.8717 24.2444 19.7713C24.2941 19.7138 24.3454 19.6598 24.3934 19.6013C24.5877 19.3689 24.7726 19.1288 24.9454 18.8777C24.9762 18.833 25.0038 18.7856 25.0342 18.7402C25.1756 18.5289 25.3086 18.3125 25.4349 18.0901C25.4802 18.0106 25.5238 17.9317 25.5668 17.8511C25.6038 17.7815 25.6457 17.7136 25.681 17.6435L25.6805 20.0709ZM17.6189 3.43457C21.6483 3.43457 24.9945 6.7586 25.6386 11.1027H9.5977C10.2434 6.69238 13.5972 3.43457 17.6189 3.43457ZM9.47848 12.2064H25.7413C25.7468 12.3444 25.7595 12.4807 25.7595 12.6203C25.7595 13.0359 25.7341 13.4553 25.6844 13.867C25.6463 14.1855 25.5927 14.5 25.5249 14.8096C25.3218 15.7384 24.9901 16.6226 24.5464 17.4312C23.9553 18.509 23.1645 19.4522 22.2158 20.1868L22.2031 20.1973C22.0596 20.3076 21.9133 20.4147 21.7632 20.5146C19.2421 22.2056 15.9959 22.2051 13.4748 20.5146C13.3203 20.4108 13.1696 20.3016 13.0217 20.1868C10.8031 18.4688 9.47857 15.6403 9.47857 12.6209C9.47848 12.6209 9.47848 12.2064 9.47848 12.2064ZM9.47848 20.0709V17.4831C9.49725 17.5212 9.51936 17.5576 9.53804 17.5956C9.62027 17.7606 9.70694 17.9234 9.79739 18.0835C9.83328 18.147 9.86972 18.2099 9.90663 18.2729C10.0043 18.4373 10.1059 18.5984 10.2119 18.7563C10.2389 18.7972 10.2649 18.8386 10.2924 18.8794C10.4276 19.0748 10.5689 19.2641 10.7169 19.449C10.75 19.4904 10.7853 19.5296 10.819 19.571C10.9371 19.7139 11.0591 19.8536 11.1849 19.9894C11.2097 20.0164 11.2318 20.0457 11.2567 20.0716L9.47848 20.0709Z" fill="#101928"/>
</g>
<defs>
<clipPath id="clip0_1_974">
<rect width="30.6496" height="30.6496" fill="white" transform="translate(2.29424 2.33099)"/>
</clipPath>
</defs>
</svg>
