<svg width="36" height="36" viewBox="0 0 36 36" fill="none" xmlns="http://www.w3.org/2000/svg">
<g clip-path="url(#clip0_1_1084)">
<path d="M30.0247 32.5711H27.1057V29.6521C27.1057 28.4909 26.6444 27.3772 25.8233 26.556C25.0022 25.7349 23.8885 25.2736 22.7272 25.2736H13.9702C12.8089 25.2736 11.6952 25.7349 10.8741 26.556C10.053 27.3772 9.59166 28.4909 9.59166 29.6521V32.5711H6.67265V29.6521C6.67265 27.7167 7.44149 25.8605 8.81004 24.492C10.1786 23.1234 12.0347 22.3546 13.9702 22.3546H22.7272C24.6626 22.3546 26.5188 23.1234 27.8873 24.492C29.2559 25.8605 30.0247 27.7167 30.0247 29.6521V32.5711ZM18.3487 19.4356C17.1987 19.4356 16.06 19.2091 14.9975 18.769C13.9351 18.3289 12.9697 17.6839 12.1565 16.8707C11.3434 16.0575 10.6983 15.0922 10.2582 14.0297C9.81816 12.9673 9.59166 11.8285 9.59166 10.6786C9.59166 9.52857 9.81816 8.38984 10.2582 7.32738C10.6983 6.26493 11.3434 5.29956 12.1565 4.4864C12.9697 3.67323 13.9351 3.0282 14.9975 2.58811C16.06 2.14803 17.1987 1.92152 18.3487 1.92152C20.6712 1.92152 22.8986 2.84414 24.5408 4.4864C26.1831 6.12866 27.1057 8.35605 27.1057 10.6786C27.1057 13.0011 26.1831 15.2284 24.5408 16.8707C22.8986 18.513 20.6712 19.4356 18.3487 19.4356ZM18.3487 16.5166C19.897 16.5166 21.382 15.9015 22.4768 14.8067C23.5716 13.7118 24.1867 12.2269 24.1867 10.6786C24.1867 9.13022 23.5716 7.64529 22.4768 6.55045C21.382 5.45561 19.897 4.84053 18.3487 4.84053C16.8003 4.84053 15.3154 5.45561 14.2206 6.55045C13.1257 7.64529 12.5107 9.13022 12.5107 10.6786C12.5107 12.2269 13.1257 13.7118 14.2206 14.8067C15.3154 15.9015 16.8003 16.5166 18.3487 16.5166Z" fill="#101928"/>
</g>
<defs>
<clipPath id="clip0_1_1084">
<rect width="35.0281" height="35.0281" fill="white" transform="translate(0.834801 0.461761)"/>
</clipPath>
</defs>
</svg>
