<svg width="30" height="30" viewBox="0 0 30 30" fill="none" xmlns="http://www.w3.org/2000/svg">
<g clip-path="url(#clip0_1_49)">
<path d="M20.8749 4.12501H25.7082C26.0287 4.12501 26.3361 4.25232 26.5627 4.47892C26.7893 4.70553 26.9166 5.01287 26.9166 5.33334V24.6667C26.9166 24.9871 26.7893 25.2945 26.5627 25.5211C26.3361 25.7477 26.0287 25.875 25.7082 25.875H3.95824C3.63777 25.875 3.33043 25.7477 3.10382 25.5211C2.87721 25.2945 2.74991 24.9871 2.74991 24.6667V5.33334C2.74991 5.01287 2.87721 4.70553 3.10382 4.47892C3.33043 4.25232 3.63777 4.12501 3.95824 4.12501H8.79157V1.70834H11.2082V4.12501H18.4582V1.70834H20.8749V4.12501ZM24.4999 13.7917H5.16657V23.4583H24.4999V13.7917ZM18.4582 6.54168H11.2082V8.95834H8.79157V6.54168H5.16657V11.375H24.4999V6.54168H20.8749V8.95834H18.4582V6.54168ZM7.58324 16.2083H9.99991V18.625H7.58324V16.2083ZM13.6249 16.2083H16.0416V18.625H13.6249V16.2083ZM19.6666 16.2083H22.0832V18.625H19.6666V16.2083Z" fill="white"/>
</g>
<defs>
<clipPath id="clip0_1_49">
<rect width="29" height="29" fill="white" transform="translate(0.333252 0.5)"/>
</clipPath>
</defs>
</svg>
