<svg width="36" height="36" viewBox="0 0 36 36" fill="none" xmlns="http://www.w3.org/2000/svg">
<g clip-path="url(#clip0_1_1071)">
<path d="M30.7546 3.48398L29.0098 4.74937C29.0098 4.74937 26.8336 6.36614 23.7085 7.96539C20.5811 9.56355 16.5113 11.1124 12.9329 11.1124H2.29424V21.1009L2.32817 21.2717L4.51743 28.9341L4.75715 29.7211H11.3939L11.0173 28.3189L9.23856 22.0587H12.9329C16.4642 22.0587 20.5351 23.6361 23.6734 25.2397C26.8117 26.8434 29.0098 28.4218 29.0098 28.4218L30.7546 29.6861V19.6626C32.02 19.2061 32.9438 17.9999 32.9438 16.5845C32.9438 15.1691 32.02 13.9629 30.7546 13.5053V3.48398ZM28.5653 7.5549V25.5823C27.659 24.9705 26.9409 24.4144 24.6652 23.2563C21.4502 21.6143 17.2983 19.9505 13.2405 19.8695V13.3017C17.3366 13.2207 21.494 11.5229 24.7002 9.88099C26.9705 8.7174 27.6666 8.1668 28.5653 7.5549ZM4.48349 13.3017H11.0513V19.8695H4.48349V13.3017ZM4.86005 22.0587H6.94641L8.48546 27.5319H6.39909L4.86005 22.0587Z" fill="#101928"/>
</g>
<defs>
<clipPath id="clip0_1_1071">
<rect width="35.0281" height="35.0281" fill="white" transform="translate(0.834801 0.565201)"/>
</clipPath>
</defs>
</svg>
