<svg width="43" height="44" viewBox="0 0 43 44" fill="none" xmlns="http://www.w3.org/2000/svg">
<path d="M35.9195 30.8619H39.4598V34.4021H4.05769V30.8619H7.5979V18.4712C7.5979 14.7155 9.08984 11.1136 11.7455 8.45797C14.4012 5.8023 18.003 4.31036 21.7587 4.31036C25.5144 4.31036 29.1163 5.8023 31.7719 8.45797C34.4276 11.1136 35.9195 14.7155 35.9195 18.4712V30.8619ZM32.3793 30.8619V18.4712C32.3793 15.6544 31.2604 12.953 29.2686 10.9613C27.2769 8.96952 24.5755 7.85057 21.7587 7.85057C18.942 7.85057 16.2406 8.96952 14.2488 10.9613C12.2571 12.953 11.1381 15.6544 11.1381 18.4712V30.8619H32.3793ZM16.4484 37.9423H27.069V41.4825H16.4484V37.9423Z" fill="#3F3F44"/>
<circle cx="32.3793" cy="11.3908" r="7.08041" fill="#5679FF"/>
</svg>
