<svg width="9" height="12" viewBox="0 0 9 12" fill="none" xmlns="http://www.w3.org/2000/svg">
<path d="M8.73593 11.9127H7.94175V9.92723C7.94175 9.40066 7.73257 8.89565 7.36023 8.52331C6.98788 8.15096 6.48288 7.94178 5.9563 7.94178H3.57376C3.04719 7.94178 2.54218 8.15096 2.16983 8.52331C1.79749 8.89565 1.58831 9.40066 1.58831 9.92723V11.9127H0.794128V9.92723C0.794128 9.19003 1.08698 8.48302 1.60826 7.96174C2.12955 7.44046 2.83656 7.1476 3.57376 7.1476H5.9563C6.69351 7.1476 7.40052 7.44046 7.9218 7.96174C8.44308 8.48302 8.73593 9.19003 8.73593 9.92723V11.9127ZM4.76503 1.58834C5.15772 1.58834 5.54158 1.70478 5.86809 1.92295C6.19459 2.14111 6.44907 2.4512 6.59935 2.81399C6.74962 3.17679 6.78894 3.57599 6.71233 3.96113C6.63572 4.34627 6.44663 4.70005 6.16896 4.97772C5.89129 5.25539 5.53751 5.44448 5.15237 5.52109C4.76723 5.5977 4.36803 5.55838 4.00523 5.40811C3.64244 5.25783 3.33235 5.00335 3.11419 4.67685C2.89602 4.35034 2.77958 3.96648 2.77958 3.57379C2.77958 3.04722 2.98876 2.54221 3.3611 2.16986C3.73345 1.79752 4.23846 1.58834 4.76503 1.58834ZM4.76503 0.794159C4.21527 0.794159 3.67786 0.957182 3.22075 1.26261C2.76364 1.56804 2.40737 2.00216 2.19699 2.51007C1.9866 3.01798 1.93156 3.57687 2.03881 4.11607C2.14606 4.65527 2.4108 5.15055 2.79953 5.53929C3.18827 5.92803 3.68356 6.19276 4.22275 6.30001C4.76195 6.40727 5.32084 6.35222 5.82875 6.14184C6.33666 5.93145 6.77078 5.57518 7.07621 5.11807C7.38164 4.66096 7.54466 4.12355 7.54466 3.57379C7.54466 2.83659 7.25181 2.12958 6.73053 1.60829C6.20924 1.08701 5.50223 0.794159 4.76503 0.794159Z" fill="white"/>
</svg>
